<svg width="320" height="320" viewBox="0 0 320 320" xmlns="http://www.w3.org/2000/svg" shape-rendering="crispEdges"><rect width="100%" height="100%" fill="#e1d7d5" /><rect width="100" height="10" x="110" y="260" fill="#f98f30" /><rect width="100" height="10" x="110" y="270" fill="#f98f30" /><rect width="20" height="10" x="110" y="280" fill="#f98f30" /><rect width="70" height="10" x="140" y="280" fill="#f98f30" /><rect width="20" height="10" x="110" y="290" fill="#f98f30" /><rect width="70" height="10" x="140" y="290" fill="#f98f30" /><rect width="20" height="10" x="110" y="300" fill="#f98f30" /><rect width="70" height="10" x="140" y="300" fill="#f98f30" /><rect width="20" height="10" x="110" y="310" fill="#f98f30" /><rect width="70" height="10" x="140" y="310" fill="#f98f30" /><rect width="20" height="10" x="150" y="270" fill="#fa6fe2" /><rect width="10" height="10" x="180" y="270" fill="#fa6fe2" /><rect width="10" height="10" x="150" y="280" fill="#fa6fe2" /><rect width="20" height="10" x="170" y="280" fill="#fa6fe2" /><rect width="40" height="10" x="150" y="300" fill="#fa6fe2" /><rect width="30" height="10" x="60" y="100" fill="#7d635e" /><rect width="30" height="10" x="190" y="100" fill="#7d635e" /><rect width="10" height="10" x="60" y="110" fill="#7d635e" /><rect width="20" height="10" x="70" y="110" fill="#f38b7c" /><rect width="10" height="10" x="90" y="110" fill="#7d635e" /><rect width="10" height="10" x="180" y="110" fill="#7d635e" /><rect width="20" height="10" x="190" y="110" fill="#f38b7c" /><rect width="10" height="10" x="210" y="110" fill="#7d635e" /><rect width="10" height="10" x="60" y="120" fill="#7d635e" /><rect width="30" height="10" x="70" y="120" fill="#f38b7c" /><rect width="10" height="10" x="100" y="120" fill="#7d635e" /><rect width="10" height="10" x="170" y="120" fill="#7d635e" /><rect width="30" height="10" x="180" y="120" fill="#f38b7c" /><rect width="10" height="10" x="210" y="120" fill="#7d635e" /><rect width="10" height="10" x="70" y="130" fill="#7d635e" /><rect width="30" height="10" x="80" y="130" fill="#f38b7c" /><rect width="10" height="10" x="110" y="130" fill="#7d635e" /><rect width="10" height="10" x="160" y="130" fill="#7d635e" /><rect width="30" height="10" x="170" y="130" fill="#f38b7c" /><rect width="10" height="10" x="200" y="130" fill="#7d635e" /><rect width="10" height="10" x="80" y="140" fill="#7d635e" /><rect width="20" height="10" x="90" y="140" fill="#f38b7c" /><rect width="20" height="10" x="110" y="140" fill="#7d635e" /><rect width="20" height="10" x="150" y="140" fill="#7d635e" /><rect width="20" height="10" x="170" y="140" fill="#f38b7c" /><rect width="10" height="10" x="190" y="140" fill="#7d635e" /><rect width="100" height="10" x="90" y="150" fill="#7d635e" /><rect width="80" height="10" x="90" y="160" fill="#7d635e" /><rect width="80" height="10" x="90" y="170" fill="#7d635e" /><rect width="80" height="10" x="90" y="180" fill="#7d635e" /><rect width="80" height="10" x="90" y="190" fill="#7d635e" /><rect width="60" height="10" x="90" y="200" fill="#7d635e" /><rect width="90" height="10" x="150" y="200" fill="#d4b7b2" /><rect width="30" height="10" x="240" y="200" fill="#000000" /><rect width="60" height="10" x="90" y="210" fill="#7d635e" /><rect width="90" height="10" x="150" y="210" fill="#d4b7b2" /><rect width="30" height="10" x="240" y="210" fill="#000000" /><rect width="60" height="10" x="90" y="220" fill="#7d635e" /><rect width="120" height="10" x="150" y="220" fill="#d4b7b2" /><rect width="60" height="10" x="90" y="230" fill="#7d635e" /><rect width="20" height="10" x="150" y="230" fill="#000000" /><rect width="100" height="10" x="170" y="230" fill="#d4b7b2" /><rect width="60" height="10" x="90" y="240" fill="#7d635e" /><rect width="120" height="10" x="150" y="240" fill="#d4b7b2" /><rect width="60" height="10" x="90" y="250" fill="#7d635e" /><rect width="120" height="10" x="150" y="250" fill="#d4b7b2" /><rect width="80" height="10" x="80" y="140" fill="#2b83f6" /><rect width="80" height="10" x="170" y="140" fill="#2b83f6" /><rect width="10" height="10" x="80" y="150" fill="#2b83f6" /><rect width="20" height="10" x="90" y="150" fill="#ffffff" /><rect width="40" height="10" x="110" y="150" fill="#000000" /><rect width="10" height="10" x="150" y="150" fill="#2b83f6" /><rect width="10" height="10" x="170" y="150" fill="#2b83f6" /><rect width="20" height="10" x="180" y="150" fill="#ffffff" /><rect width="40" height="10" x="200" y="150" fill="#000000" /><rect width="10" height="10" x="240" y="150" fill="#2b83f6" /><rect width="10" height="10" x="80" y="160" fill="#2b83f6" /><rect width="20" height="10" x="90" y="160" fill="#ffffff" /><rect width="40" height="10" x="110" y="160" fill="#000000" /><rect width="10" height="10" x="150" y="160" fill="#2b83f6" /><rect width="10" height="10" x="170" y="160" fill="#2b83f6" /><rect width="20" height="10" x="180" y="160" fill="#ffffff" /><rect width="40" height="10" x="200" y="160" fill="#000000" /><rect width="10" height="10" x="240" y="160" fill="#2b83f6" /><rect width="40" height="10" x="50" y="170" fill="#2b83f6" /><rect width="20" height="10" x="90" y="170" fill="#ffffff" /><rect width="40" height="10" x="110" y="170" fill="#000000" /><rect width="30" height="10" x="150" y="170" fill="#2b83f6" /><rect width="20" height="10" x="180" y="170" fill="#ffffff" /><rect width="40" height="10" x="200" y="170" fill="#000000" /><rect width="10" height="10" x="240" y="170" fill="#2b83f6" /><rect width="10" height="10" x="50" y="180" fill="#2b83f6" /><rect width="10" height="10" x="80" y="180" fill="#2b83f6" /><rect width="20" height="10" x="90" y="180" fill="#ffffff" /><rect width="40" height="10" x="110" y="180" fill="#000000" /><rect width="10" height="10" x="150" y="180" fill="#2b83f6" /><rect width="10" height="10" x="170" y="180" fill="#2b83f6" /><rect width="20" height="10" x="180" y="180" fill="#ffffff" /><rect width="40" height="10" x="200" y="180" fill="#000000" /><rect width="10" height="10" x="240" y="180" fill="#2b83f6" /><rect width="10" height="10" x="50" y="190" fill="#2b83f6" /><rect width="10" height="10" x="80" y="190" fill="#2b83f6" /><rect width="20" height="10" x="90" y="190" fill="#ffffff" /><rect width="40" height="10" x="110" y="190" fill="#000000" /><rect width="10" height="10" x="150" y="190" fill="#2b83f6" /><rect width="10" height="10" x="170" y="190" fill="#2b83f6" /><rect width="20" height="10" x="180" y="190" fill="#ffffff" /><rect width="40" height="10" x="200" y="190" fill="#000000" /><rect width="10" height="10" x="240" y="190" fill="#2b83f6" /><rect width="10" height="10" x="80" y="200" fill="#2b83f6" /><rect width="20" height="10" x="90" y="200" fill="#ffffff" /><rect width="40" height="10" x="110" y="200" fill="#000000" /><rect width="10" height="10" x="150" y="200" fill="#2b83f6" /><rect width="10" height="10" x="170" y="200" fill="#2b83f6" /><rect width="20" height="10" x="180" y="200" fill="#ffffff" /><rect width="40" height="10" x="200" y="200" fill="#000000" /><rect width="10" height="10" x="240" y="200" fill="#2b83f6" /><rect width="80" height="10" x="80" y="210" fill="#2b83f6" /><rect width="80" height="10" x="170" y="210" fill="#2b83f6" /></svg>